<mxfile host="Electron" modified="2023-04-23T12:28:10.536Z" agent="Mozilla/5.0 (Macintosh; Intel Mac OS X 10_15_7) AppleWebKit/537.36 (KHTML, like Gecko) draw.io/21.2.1 Chrome/112.0.5615.87 Electron/24.1.2 Safari/537.36" etag="iikHZBbXT-HBF64H9BTM" version="21.2.1" type="device">
  <diagram id="wFE0QG_FPsp0jaGvCLVb" name="Page-1">
    <mxGraphModel dx="1306" dy="894" grid="1" gridSize="10" guides="1" tooltips="1" connect="1" arrows="1" fold="1" page="1" pageScale="1" pageWidth="850" pageHeight="1100" background="#d2f6f9" math="0" shadow="0">
      <root>
        <mxCell id="0" />
        <mxCell id="1" parent="0" />
        <mxCell id="dnroV-yNeMtvSaGfvZ87-7" style="edgeStyle=orthogonalEdgeStyle;curved=1;rounded=0;orthogonalLoop=1;jettySize=auto;html=1;entryX=0.5;entryY=0;entryDx=0;entryDy=0;" edge="1" parent="1" source="dnroV-yNeMtvSaGfvZ87-1" target="dnroV-yNeMtvSaGfvZ87-2">
          <mxGeometry relative="1" as="geometry" />
        </mxCell>
        <mxCell id="dnroV-yNeMtvSaGfvZ87-1" value="&lt;font face=&quot;Comic Sans MS&quot;&gt;Tweet Sentiment Tabular data&lt;/font&gt;" style="shape=datastore;whiteSpace=wrap;html=1;fillColor=#dae8fc;strokeColor=#6c8ebf;" vertex="1" parent="1">
          <mxGeometry x="40" y="60" width="120" height="120" as="geometry" />
        </mxCell>
        <mxCell id="dnroV-yNeMtvSaGfvZ87-2" value="EDA" style="swimlane;fontStyle=0;childLayout=stackLayout;horizontal=1;startSize=30;horizontalStack=0;resizeParent=1;resizeParentMax=0;resizeLast=0;collapsible=1;marginBottom=0;whiteSpace=wrap;html=1;fillColor=#d5e8d4;strokeColor=#fcfffa;fontFamily=Comic Sans MS;" vertex="1" parent="1">
          <mxGeometry x="200" y="170" width="240" height="120" as="geometry" />
        </mxCell>
        <mxCell id="dnroV-yNeMtvSaGfvZ87-3" value="Dist. of sentiments" style="text;strokeColor=#fafaf9;fillColor=#eee0b9;align=left;verticalAlign=middle;spacingLeft=4;spacingRight=4;overflow=hidden;points=[[0,0.5],[1,0.5]];portConstraint=eastwest;rotatable=0;whiteSpace=wrap;html=1;fontFamily=Lucida Console;fontSize=14;" vertex="1" parent="dnroV-yNeMtvSaGfvZ87-2">
          <mxGeometry y="30" width="240" height="30" as="geometry" />
        </mxCell>
        <mxCell id="dnroV-yNeMtvSaGfvZ87-4" value="Wordcloud" style="text;strokeColor=#fafaf9;fillColor=#eee0b9;align=left;verticalAlign=middle;spacingLeft=4;spacingRight=4;overflow=hidden;points=[[0,0.5],[1,0.5]];portConstraint=eastwest;rotatable=0;whiteSpace=wrap;html=1;fontFamily=Lucida Console;fontSize=14;" vertex="1" parent="dnroV-yNeMtvSaGfvZ87-2">
          <mxGeometry y="60" width="240" height="30" as="geometry" />
        </mxCell>
        <mxCell id="dnroV-yNeMtvSaGfvZ87-5" value="Avg. words per sentiment" style="text;strokeColor=#fafaf9;fillColor=#eee0b9;align=left;verticalAlign=middle;spacingLeft=4;spacingRight=4;overflow=hidden;points=[[0,0.5],[1,0.5]];portConstraint=eastwest;rotatable=0;whiteSpace=wrap;html=1;fontFamily=Lucida Console;fontSize=14;" vertex="1" parent="dnroV-yNeMtvSaGfvZ87-2">
          <mxGeometry y="90" width="240" height="30" as="geometry" />
        </mxCell>
        <mxCell id="dnroV-yNeMtvSaGfvZ87-43" style="edgeStyle=orthogonalEdgeStyle;curved=1;rounded=0;orthogonalLoop=1;jettySize=auto;html=1;entryX=1;entryY=0.5;entryDx=0;entryDy=0;" edge="1" parent="1" source="dnroV-yNeMtvSaGfvZ87-9" target="dnroV-yNeMtvSaGfvZ87-37">
          <mxGeometry relative="1" as="geometry" />
        </mxCell>
        <mxCell id="dnroV-yNeMtvSaGfvZ87-9" value="" style="rounded=1;whiteSpace=wrap;html=1;strokeColor=#eaeff6;fillColor=#7badf4;" vertex="1" parent="1">
          <mxGeometry x="280" y="370" width="500" height="200" as="geometry" />
        </mxCell>
        <mxCell id="dnroV-yNeMtvSaGfvZ87-10" style="edgeStyle=orthogonalEdgeStyle;curved=1;rounded=0;orthogonalLoop=1;jettySize=auto;html=1;" edge="1" parent="1" source="dnroV-yNeMtvSaGfvZ87-3" target="dnroV-yNeMtvSaGfvZ87-9">
          <mxGeometry relative="1" as="geometry" />
        </mxCell>
        <mxCell id="dnroV-yNeMtvSaGfvZ87-12" value="" style="dashed=0;outlineConnect=0;html=1;align=center;labelPosition=center;verticalLabelPosition=bottom;verticalAlign=top;shape=mxgraph.webicons.twitter;fillColor=#49EAF7;gradientColor=#137BD0" vertex="1" parent="1">
          <mxGeometry x="50" y="70" width="40" height="40" as="geometry" />
        </mxCell>
        <mxCell id="dnroV-yNeMtvSaGfvZ87-15" value="" style="endArrow=none;html=1;rounded=0;curved=1;exitX=0;exitY=0.5;exitDx=0;exitDy=0;entryX=1;entryY=0.5;entryDx=0;entryDy=0;strokeColor=#eaaa1f;" edge="1" parent="1" source="dnroV-yNeMtvSaGfvZ87-9" target="dnroV-yNeMtvSaGfvZ87-9">
          <mxGeometry width="50" height="50" relative="1" as="geometry">
            <mxPoint x="400" y="470" as="sourcePoint" />
            <mxPoint x="450" y="420" as="targetPoint" />
          </mxGeometry>
        </mxCell>
        <mxCell id="dnroV-yNeMtvSaGfvZ87-16" value="&lt;font face=&quot;Comic Sans MS&quot;&gt;Training sample NER example&lt;/font&gt;" style="text;html=1;strokeColor=none;fillColor=none;align=center;verticalAlign=middle;whiteSpace=wrap;rounded=0;" vertex="1" parent="1">
          <mxGeometry x="280" y="380" width="200" height="30" as="geometry" />
        </mxCell>
        <mxCell id="dnroV-yNeMtvSaGfvZ87-30" style="edgeStyle=orthogonalEdgeStyle;curved=1;rounded=0;orthogonalLoop=1;jettySize=auto;html=1;entryX=0.5;entryY=1;entryDx=0;entryDy=0;" edge="1" parent="1" source="dnroV-yNeMtvSaGfvZ87-17" target="dnroV-yNeMtvSaGfvZ87-20">
          <mxGeometry relative="1" as="geometry" />
        </mxCell>
        <mxCell id="dnroV-yNeMtvSaGfvZ87-17" value="" style="html=1;verticalLabelPosition=bottom;align=center;labelBackgroundColor=#ffffff;verticalAlign=top;strokeWidth=2;strokeColor=#0080F0;shadow=0;dashed=0;shape=mxgraph.ios7.icons.cloud;" vertex="1" parent="1">
          <mxGeometry x="450" y="490" width="140" height="50" as="geometry" />
        </mxCell>
        <mxCell id="dnroV-yNeMtvSaGfvZ87-18" value="Word2Vec" style="text;html=1;strokeColor=none;fillColor=none;align=center;verticalAlign=middle;whiteSpace=wrap;rounded=0;fontFamily=Lucida Console;" vertex="1" parent="1">
          <mxGeometry x="490" y="510" width="60" height="30" as="geometry" />
        </mxCell>
        <mxCell id="dnroV-yNeMtvSaGfvZ87-19" value="" style="html=1;verticalLabelPosition=bottom;align=center;labelBackgroundColor=#ffffff;verticalAlign=top;strokeWidth=2;strokeColor=#0080F0;shadow=0;dashed=0;shape=mxgraph.ios7.icons.cloud;" vertex="1" parent="1">
          <mxGeometry x="600" y="410" width="140" height="50" as="geometry" />
        </mxCell>
        <mxCell id="dnroV-yNeMtvSaGfvZ87-20" value="Bi-directional LSTM" style="text;html=1;strokeColor=none;fillColor=none;align=center;verticalAlign=middle;whiteSpace=wrap;rounded=0;fontFamily=Lucida Console;" vertex="1" parent="1">
          <mxGeometry x="610" y="430" width="110" height="30" as="geometry" />
        </mxCell>
        <mxCell id="dnroV-yNeMtvSaGfvZ87-25" value="" style="shape=image;html=1;verticalLabelPosition=bottom;verticalAlign=top;imageAspect=0;image=img/clipart/Gear_128x128.png;opacity=70;" vertex="1" parent="1">
          <mxGeometry x="730" y="380" width="30" height="30" as="geometry" />
        </mxCell>
        <mxCell id="dnroV-yNeMtvSaGfvZ87-26" value="" style="shape=image;html=1;verticalLabelPosition=bottom;verticalAlign=top;imageAspect=0;image=img/clipart/Gear_128x128.png" vertex="1" parent="1">
          <mxGeometry x="730" y="530" width="30" height="30" as="geometry" />
        </mxCell>
        <mxCell id="dnroV-yNeMtvSaGfvZ87-29" style="edgeStyle=orthogonalEdgeStyle;curved=1;rounded=0;orthogonalLoop=1;jettySize=auto;html=1;entryX=0.007;entryY=0.64;entryDx=0;entryDy=0;entryPerimeter=0;strokeColor=#FF0000;shadow=0;sketch=1;curveFitting=1;jiggle=2;" edge="1" parent="1" source="dnroV-yNeMtvSaGfvZ87-28" target="dnroV-yNeMtvSaGfvZ87-17">
          <mxGeometry relative="1" as="geometry" />
        </mxCell>
        <mxCell id="dnroV-yNeMtvSaGfvZ87-28" value="" style="shape=image;verticalLabelPosition=bottom;labelBackgroundColor=default;verticalAlign=top;aspect=fixed;imageAspect=0;image=data:image/png,iVBORw0KGgoAAAANSUhEUgAAA7YAAAC4CAYAAADXGHB1AAAKr2lDQ1BJQ0MgUHJvZmlsZQAASImVlwdUU9kWhs+96SGhJCEUKaE3QToBpITQAihIBxshCRBKiCEBxY6IIzgWVERQEXRUQMFRKTIWRBQLg6KC3QEZBJRxsGBD5V1gEWbmrffeenutvc6XnX3+s89Z99y1LwBkZa5YnAorA5AmkkpC/bwY0TGxDNwAQAMaIAIyUOTyMsSskJAggNj0+Hf70A2gifGu5YTWv///X02FL8jgAQCFIBzPz+ClIXwG8Zc8sUQKAOogEjfIkoonuBVhmgQpEOEHE5w4xcMTHD/JaDCZEx7KRpgGAJ7E5UoSASAxkDgjk5eI6JA8EbYW8YUihMUIu6elpfMRPomwKZKDxEgT+sz4v+gk/k0zXq7J5SbKeWovk4b3FmaIU7kr/s/j+N+WliqbXsMYcVKSxD8UGSnImT1ISQ+Usyh+fvA0C/mT+ZOcJPOPmGZeBjt2mvlc70D53NT5QdOcIPTlyHWknPBpFmT4hE2zJD1UvlaChM2aZq5kZl1ZSoQ8niTgyPWzk8KjpjlTGDl/mjNSwgJnctjyuEQWKq9fIPLzmlnXV773tIy/7FfIkc+VJoX7y/fOnalfIGLNaGZEy2vjC7x9ZnIi5PliqZd8LXFqiDxfkOonj2dkhsnnSpEHcmZuiPwMk7kBIdMM2CAdpCIuAQwQhPzyBkAqWC6d2Ag7XbxCIkxMkjJYyA0TMDgintVshq21rR0AE/d16nF4R5+8hxD9xkws5z0Abvzx8fFzM7EgQwDObASA+GImZnIBAEU1AK4V8GSSzKnY5F3CIG8BJeRdoAF0gAEwBZbAFjgCV+AJfEAACAbhIAYsATyQBNKQyrPAKrAe5IECsB3sBiWgDBwCx8AJcAo0gHPgErgKboLboAs8Bj2gH7wCI+ADGIMgCAeRISqkAelCRpAFZAsxIXfIBwqCQqEYKA5KhESQDFoFbYAKoEKoBCqHKqGfobPQJeg61Ak9hHqhIegt9AVGwSSYBmvDxvAcmAmz4EA4HF4MJ8LL4Gw4F94KF8MV8HG4Hr4E34S74B74FTyKAigFFB2lh7JEMVFsVDAqFpWAkqDWoPJRRagKVA2qCdWGuovqQQ2jPqOxaCqagbZEu6L90RFoHnoZeg16C7oEfQxdj25F30X3okfQ3zFkjBbGAuOC4WCiMYmYLEwepghzBFOHuYLpwvRjPmCxWDrWBOuE9cfGYJOxK7FbsPuxtdhmbCe2DzuKw+E0cBY4N1wwjouT4vJwe3HHcRdxd3D9uE94Bbwu3hbvi4/Fi/A5+CJ8Ff4C/g5+AD9GUCYYEVwIwQQ+YQVhG+EwoYlwi9BPGCOqEE2IbsRwYjJxPbGYWEO8QnxCfKegoKCv4KywQEGosE6hWOGkwjWFXoXPJArJnMQmLSLJSFtJR0nNpIekd2Qy2ZjsSY4lS8lbyZXky+Rn5E+KVEUrRY4iX3GtYqliveIdxddKBCUjJZbSEqVspSKl00q3lIaVCcrGymxlrvIa5VLls8r3lUdVqCo2KsEqaSpbVKpUrqsMUnAUY4oPhU/JpRyiXKb0UVFUAyqbyqNuoB6mXqH207A0ExqHlkwroJ2gddBGVCmq9qqRqstVS1XPq/bQUXRjOoeeSt9GP0Xvpn9R01ZjqQnUNqvVqN1R+6g+S91TXaCer16r3qX+RYOh4aORorFDo0HjqSZa01xzgWaW5gHNK5rDs2izXGfxZuXPOjXrkRasZa4VqrVS65BWu9aoto62n7ZYe6/2Ze1hHbqOp06yzi6dCzpDulRdd12h7i7di7ovGaoMFiOVUcxoZYzoaen568n0yvU69Mb0TfQj9HP0a/WfGhANmAYJBrsMWgxGDHUN5xmuMqw2fGREMGIaJRntMWoz+mhsYhxlvMm4wXjQRN2EY5JtUm3yxJRs6mG6zLTC9J4Z1oxplmK23+y2OWzuYJ5kXmp+ywK2cLQQWuy36JyNme08WzS7YvZ9S5IlyzLTstqy14puFWSVY9Vg9XqO4ZzYOTvmtM35bu1gnWp92PqxDcUmwCbHpsnmra25Lc+21PaeHdnO126tXaPdG3sLe4H9AfsHDlSHeQ6bHFocvjk6OUocaxyHnAyd4pz2Od1n0pghzC3Ma84YZy/ntc7nnD+7OLpIXU65/Olq6ZriWuU6ONdkrmDu4bl9bvpuXLdytx53hnuc+0H3Hg89D65HhcdzTwNPvucRzwGWGSuZdZz12svaS+JV5/WR7cJezW72Rnn7eed7d/hQfCJ8Snye+er7JvpW+474Ofit9Gv2x/gH+u/wv8/R5vA4lZyRAKeA1QGtgaTAsMCSwOdB5kGSoKZ58LyAeTvnPZlvNF80vyEYBHOCdwY/DTEJWRbyywLsgpAFpQtehNqErgptC6OGLQ2rCvsQ7hW+LfxxhGmELKIlUilyUWRl5Mco76jCqJ7oOdGro2/GaMYIYxpjcbGRsUdiRxf6LNy9sH+Rw6K8Rd2LTRYvX3x9ieaS1CXnlyot5S49HYeJi4qrivvKDeZWcEfjOfH74kd4bN4e3iu+J38Xf0jgJigUDCS4JRQmDCa6Je5MHErySCpKGhayhSXCN8n+yWXJH1OCU46mjKdGpdam4dPi0s6KKKIUUWu6Tvry9E6xhThP3LPMZdnuZSOSQMmRDChjcUajlIY0Ru0yU9lGWW+me2Zp5qesyKzTy1WWi5a3rzBfsXnFQLZv9k8r0St5K1tW6a1av6p3NWt1+RpoTfyalrUGa3PX9q/zW3dsPXF9yvpfc6xzCnPeb4ja0JSrnbsut2+j38bqPMU8Sd79Ta6byn5A/yD8oWOz3ea9m7/n8/NvFFgXFBV83cLbcuNHmx+LfxzfmrC1Y5vjtgPbsdtF27t3eOw4VqhSmF3Yt3PezvpdjF35u97vXrr7epF9Udke4h7Znp7ioOLGvYZ7t+/9WpJU0lXqVVq7T2vf5n0f9/P33zngeaCmTLusoOzLQeHBB+V+5fUVxhVFh7CHMg+9OBx5uO0n5k+VRzSPFBz5dlR0tOdY6LHWSqfKyiqtqm3VcLWseuj4ouO3T3ifaKyxrCmvpdcWnAQnZSdf/hz3c/epwFMtp5mna84YndlXR63Lr4fqV9SPNCQ19DTGNHaeDTjb0uTaVPeL1S9Hz+mdKz2ven7bBeKF3AvjF7MvjjaLm4cvJV7qa1na8vhy9OV7rQtaO64EXrl21ffq5TZW28VrbtfOXXe5fvYG80bDTceb9e0O7XW/Ovxa1+HYUX/L6VbjbefbTZ1zOy/c8bhz6a733av3OPduds3v6uyO6H5wf9H9ngf8B4MPUx++eZT5aOzxuieYJ/lPlZ8WPdN6VvGb2W+1PY4953u9e9ufhz1/3Mfre/V7xu9f+3NfkF8UDegOVA7aDp4b8h26/XLhy/5X4ldjw3l/qPyx77Xp6zN/ev7ZPhI90v9G8mb87ZZ3Gu+Ovrd/3zIaMvrsQ9qHsY/5nzQ+HfvM/Nz2JerLwFjWV9zX4m9m35q+B35/Mp42Pi7mSriTrQAKcTghAYC3RwEgxwBAvY30Dwun+ulJg6a+ASYJ/Cee6rknzRGAGmSYaIvYzQCcRNx4HaLtCcBESxTuCWA7O7lP976TffqEYZEvloPeE/Rw58JpTblN9fB/qfufI5hQtQf/HP8FUqUGrIbKGcwAAACWZVhJZk1NACoAAAAIAAUBEgADAAAAAQABAAABGgAFAAAAAQAAAEoBGwAFAAAAAQAAAFIBKAADAAAAAQACAACHaQAEAAAAAQAAAFoAAAAAAAAAkAAAAAEAAACQAAAAAQADkoYABwAAABIAAACEoAIABAAAAAEAAAO2oAMABAAAAAEAAAC4AAAAAEFTQ0lJAAAAU2NyZWVuc2hvdAmbHqsAAAAJcEhZcwAAFiUAABYlAUlSJPAAAALbaVRYdFhNTDpjb20uYWRvYmUueG1wAAAAAAA8eDp4bXBtZXRhIHhtbG5zOng9ImFkb2JlOm5zOm1ldGEvIiB4OnhtcHRrPSJYTVAgQ29yZSA2LjAuMCI+CiAgIDxyZGY6UkRGIHhtbG5zOnJkZj0iaHR0cDovL3d3dy53My5vcmcvMTk5OS8wMi8yMi1yZGYtc3ludGF4LW5zIyI+CiAgICAgIDxyZGY6RGVzY3JpcHRpb24gcmRmOmFib3V0PSIiCiAgICAgICAgICAgIHhtbG5zOmV4aWY9Imh0dHA6Ly9ucy5hZG9iZS5jb20vZXhpZi8xLjAvIgogICAgICAgICAgICB4bWxuczp0aWZmPSJodHRwOi8vbnMuYWRvYmUuY29tL3RpZmYvMS4wLyI+CiAgICAgICAgIDxleGlmOlVzZXJDb21tZW50PlNjcmVlbnNob3Q8L2V4aWY6VXNlckNvbW1lbnQ+CiAgICAgICAgIDxleGlmOlBpeGVsWERpbWVuc2lvbj45NTA8L2V4aWY6UGl4ZWxYRGltZW5zaW9uPgogICAgICAgICA8ZXhpZjpQaXhlbFlEaW1lbnNpb24+MTg0PC9leGlmOlBpeGVsWURpbWVuc2lvbj4KICAgICAgICAgPHRpZmY6UmVzb2x1dGlvblVuaXQ+MjwvdGlmZjpSZXNvbHV0aW9uVW5pdD4KICAgICAgICAgPHRpZmY6WFJlc29sdXRpb24+MTQ0LzE8L3RpZmY6WFJlc29sdXRpb24+CiAgICAgICAgIDx0aWZmOllSZXNvbHV0aW9uPjE0NC8xPC90aWZmOllSZXNvbHV0aW9uPgogICAgICAgICA8dGlmZjpPcmllbnRhdGlvbj4xPC90aWZmOk9yaWVudGF0aW9uPgogICAgICA8L3JkZjpEZXNjcmlwdGlvbj4KICAgPC9yZGY6UkRGPgo8L3g6eG1wbWV0YT4KrNGfZwAAQABJREFUeAHtnQv8PcX4x6dE94tEuqko0UVSckvpQlRSCJVU6KKSiO660M2folII+UWUiBCpXJJCkUSpKN1IkUqpFDr/5z08+5qz391z9pyz57Ln+3ler+939+zOzM68d3Zmnrk8M1fLJEhEQAREQAREQAREQAREQAREQAREoKEE5m5ovBVtERABERABERABERABERABERABEYgEpNgqI4iACIiACIiACIiACIiACIiACDSagBTbRr8+RV4EREAEREAEREAEREAEREAERECKrfKACIiACIiACIiACIiACIiACIhAowlIsW3061PkRUAEREAEREAEREAEREAEREAEpNgqD4iACIiACIiACIiACIiACIiACDSagBTbRr8+RV4EREAEREAEREAEREAEREAERECKrfKACIiACIiACIiACIiACIiACIhAowlIsW3061PkRUAEREAEREAEREAEREAEREAEpNgqD4iACIiACIiACIiACIiACIiACDSagBTbRr8+RV4EREAEREAEREAEREAEREAERECKrfKACIiACIiACIiACIiACIiACIhAowlIsW3061PkRUAEREAEREAEREAEREAEREAEpNgqD4iACIiACIiACIiACIiACIiACDSagBTbRr8+RV4EREAEREAEREAEREAEREAERECKrfKACIiACIiACIiACIiACIiACIhAowlIsW3061PkRUAEREAEREAEREAEREAEREAEpNgqD4iACIiACIiACIiACIiACIiACDSagBTbRr8+RV4EREAEREAEREAEREAEREAERGCeqggeeuihcNddd4UHHnggPPbYY1W9yZ0IiIAIiIAIiIAIiIAIiIAIiIAIDJVAJcUWpfbGG2/MFNq55por8CcFd6jvRoGLgAiIgAiIgAiIgAiIgAiIgAhUIFBJsWWkFiV20UUXDUsuuWSYe+7ZPYP5jjvuiGiXXnrpCojlRAREQAREQAREQAREQAREQAREYJgEKmmoTD9GpNQO81UobBEQAREQAREQAREQAREQAREQgX4IVFJsfcrxbB+p7Qew/IiACIiACIiACIiACIiACIiACAyXQCXFlihIqR3ui1DoIiACIiACIiACIiACIiACIiAC/RGorNj6qG1/j5EvERABERABERABERABERABERABERgOgcqK7XAer1BFQAREQAREQAREQAREQAREQAREYDACUmwH4yffIiACIiACIiACIiACIiACIiACYyYgxXbML0CPFwEREAEREAEREAEREAEREAERGIyAFNvB+Mm3CIiACIiACIiACIiACIiACIjAmAlIsR3zC9DjRUAEREAEREAEREAEREAEREAEBiMgxXYwfvItAiIgAiIgAiIgAiIgAiIgAiIwZgJSbMf8AvR4ERABERABERABERABERABERCBwQhIsR2Mn3yLgAiIgAiIgAiIgAiIgAiIgAiMmYAU2zG/AD1eBERABERABERABERABERABERgMAJSbAfjJ98iIAIiIAIiIAIiIAIiIAIiIAJjJiDFdswvQI8XAREQAREQAREQAREQAREQAREYjIAU28H4ybcIiIAIiIAIiIAIiIAIiIAIiMCYCUixHfMLmJbH33XXXeGf//zntCRH6RABERABERABERABERABEWgQgXkaFFdFdUIJbLHFFuH73/9+WGaZZcINN9wQHve4x01oTKtH69Zbbw333ntv5mHFFVcMiy66aPZbJyIgAiIgAiIgAiIgAiIgApNDYGoU23/84x/hlltuCbfddltUSJZccsmwySabTA7pKY4JSi3ypz/9Kdx///3hiU98YqNTe+mll4aXv/zlbWnYY489wnHHHdd2TT9EQAREQAREQAREQAREQAQmg0DjpyKjzJ511lnha1/7WvjlL38Z7r777vCf//ynbbRtMlD/Nxbvete7wkYbbRT++Mc/TlK0+o5Lq9Vq8zv33I3PUuFJT3pSW5r48a9//WvGtTov/OIXvwgvetGLwgknnFBnsApLBERABERABERABERABGYFgcaP2DL19dFHH23Ey3rkkUfCqaeeGuOKIrPssss2It6dIjnXXHOF97///eFnP/tZWGeddaZiuu6zn/3s8PDDD4cHHnggbL311uGyyy7rhKCWexdeeGH41a9+FR588MFA54dEBERABERABERABERABESgOoHGK7brrbdenIK82GKLhaWWWip84xvfiApJdQSjc/nYY49lD5smQ0sHHXRQlq5pOll44YXDfPPNN5Iked546KGHRvI8PUQEREAEREAEREAEREAEpolA4xXbBRdcMKy22mrT9E76TgvTgn0EGyadjDjh1tcjMzLJ9NsVVlghLLDAAn0/fxCPTB///e9/H9foPvOZzwx0VDRJJoUnU6ZvvvnmyJHOk6WXXjost9xy4fGPf3yTcCquIiACIiACIiACIiACItATgcYrtj2ldkyO//znP4f77rsvpKNxrA2+9tpr22LEtF4sCxdZ3z3mmGPCRz/60bbRaNYWv+Y1rwlXXHFF+PSnPx0uuOCC8Ne//jWGyWjjnDlzwmabbdb2jDvvvDMceeSR4eyzz24Lyx3tsMMO4aijjgpPfvKT/dKM4zXXXBO22mqraCwqvfnGN74xPjO9lj/fdtttowVllGnieNFFF4Xzzjsvri3lmsuWW24ZPv7xj3eMh7sd5Pi3v/0tnHzyyYGp4UynZoSWta7MBNhtt926Bj0IT6Y733777XH9Loa3EIxv5fMF14nX05/+9EAeKRLWlx999NHh29/+dtHt+M732muvMO+88xbe10UREAEREAEREAEREAERaDKBuWykqd36T0FqWPuHPOtZzyq4O1mXvv71r0eFbf755w/bbLPNUCJ3xx13xHAZDesmGLXafvvtuznL7qPsEf4887T3OaA0fvOb38zccYKVXkY699tvv7br/mPllVcOv/71r/1nPL7hDW8I3/rWt9qu5X+svfba4Uc/+lHpiO8PfvCDsPnmm+e9hTXWWCMq2TNuJBdWWmmlGQpxcrvt9LnPfW7AQnGnkec2Dz3+QKF+61vfWqjgE9S6664b44rSucsuu4QTTzxxxhMG4bnqqqvG0dUZgZZcwLDUrrvuOuMuHSaMtqcdAzMc2YV99903KrhF93RNBERABERABERABERABJpMoPkmbCecfq9Tap/61KcWpuiTn/xkVDZRSlF+kWOPPTZTatln9ZBDDgmnnHJKeNWrXhXvM6qal8UXXzxeYlTyYx/7WLj88svDPffcE0csfYubK6+8coYSnYaz4YYbRoNKrGfm79WvfnV6u+M5CvMXvvCFNjeMDp922mnRqjXpw3gTQodKXplv8zjAD0Zn6fhwZZC0M5L94Q9/OGy33XYxZEbCfSS17FGD8Cx712XPKttGiVHYRRZZJHp73eteFz73uc+F3/72t4HR6O985zuBvIHQEdItPdGh/omACIiACIiACIiACIhAwwhoxLaPF9bLiC3BM+X03//+dzwuv/zy8YlMs2W0Ly+utOavp7/zo54oY3vuuWfbNFXWWhatq2SAnumuRdOdUXCZCo0wCnzEEUekjy09P/jgg8Pxxx9facSWQP7yl78E54BSiyKdTn3++c9/HtZff/34vGGMMvI+XvCCF8Q1vTzk9NNPn/EumNpLx4BP7S4bsR2EJwajsIKM0EkBQzgUTUV+whOe0HEaMetpCa9ojXQ6wk7HgfZ3jsj1TwREQAREQAREQAREYIoItM93naKETVJSmBaNpNOLMXpVRYntlo4zzzwzKmB5d0VKLW5Yo0l82F7m1ltvjdOeUa5QdBnZQ7FCmbvpppvyQQ7lNwp0qtTykOc973mRDaOpGEKqW1D0MFSF0CFQ1MFAHE466aTwpje9qePjB+HJnr+eBzyPoMD6tY4Pzt1kDe69994b3yt7JLOum2nqjChjLdyFtd0SERABERABERABERABEZg2AlJsG/xGDzzwwEKltlOS2EeXKbc+ElnmlhHfUUjRum3W1G688cbh3HPPjYaV6o4H03RdWGNbJhjmQsn06cpF7iaBJyPQhx56aDS2VRTH9Nqo3mv6TJ2LgAiIgAiIgAiIgAiIwLAJSLEdNuEhhr/EEkv0FDrrdN/97ndnflhnu84668StflDemBJ88cUXZ/dHcZKOYqfPG6b13nSqr68/TZ+dnrP1EFyKZBJ4MirLNOlzzjkniyJrnok3SjnTvn/84x+H3/zmN9l9nYiACIiACIiACIiACIjAtBGQYjumNzrqkbNHH300U2pZR4v1aKwY5+W1r31tOP/88/OXp+q3G3wiUYxcP+1pTytNH3v9FsmweBJuL8J6ZFdqGeVmvTB7EufFpzrnr+u3CIiACIiACIiACIiACEwDAVlFHuFbTNe9sh5ylJKOUrInbpFSiyGk66+/fpTRGsuzVltttey5nZT4n/70p6VTtuvm6Xmj2xTxLOL/O2H/XRf2Mi5SasuUc/enowiIgAiIgAiIgAiIgAg0nYAU2xG+wXTare8NnH/8nXfeGbfDYfponcI6TJd0jalfw2rz/vvvPxRjTf6MSTliEdlln332KZymy3vYbbfd3NmMY908UyvVv/vd72Y8jynHl1xySfjMZz4T/v73v2f32cPWJVW2/RqWrpmqLBEBERABERABERABERCBaSbQ+KnIbHPCfp00/BGfyslUXx+pwtIs+8liOXbc8pKXvCTuAYs1Y7Zd2WCDDeLeoowO/vCHPwwXXHBBjKKvj+QHI6k33HBDuO++++I9tutBbrzxxsB+rKksu+yygb+8rLrqqtkltpZhDeumm24asMzLdNYTTzwxsxSMQxQ7RgPZlie1Wsxa3Ouuuy5uLeMBYl0ZQYnKxweFzfelxQ1KWarUs/aTZ/haVxRsLBZj1RdhayXWuK6++uodt7uJjiv+IyysIZ988snRx7rrrhve9773xS2GyCtXX311+OAHP9hmNApLw8SbkW6MW9XF06Ochvee97wnfOhDH4pb91x11VXZnsG+By153ZXudOR97733jtPN11tvvRh3LF/zXlPjV7AlfWwZhWVuiQiIgAiIgAiIgAiIgAhMA4HG72N79tlnB5TbboKiuPXWW3dzVul+r/vYpoGi+G244YbppcLzPfbYIxx33HHxHnuPFm1JU+SRdBK/dHTY3R1yyCFZmH4tPeIXpRjF1QWl1jsIuIbBqVQxdXedjihSGDNCWM9aNN0WRZbOh89+9rNhr732mhEcFqCx/FuX0Dmw2WablRqG4jkojXmjSxiM2nHHHWM06uDp6UGh32mnnbL1sn49f+QdMZq/yiqrxFt04NBBcsUVV+SdZr/pWEAxTxVc0kBaJCIgAiIgAiIgAiIgAiIwDQQaPxUZZaiKoBBMgrzwhS+MI3Brr732jOgwannAAQeEyy+/vE0BXW655SrvbYoCyShskaAYHnzwwTNuwQalCoXWlWl39NznPtdP45H9XXsRFOOFFloo84JinJeVV145joJy/SlPeUr+dkw7DOqURRZZJI6Qo5zmBR677rpruNgsRKejzbjD8JZLHTw9LDoi5syZExh1TUfI/f6WW24ZTjvttPCHP/whU2q5x9rcL3/5y2GbbbZxp9mRcI466qiYn9773vdm1znxEfK2i/ohAiIgAiIgAiIgAiIgAg0l0PgR23FwH2TENo0vo21MDX3sscfiSGlVJT0No59zpgMzjfnuu+8OKJUrrLBCqTLcT/hN88NoKQrjzTffHBU+pumWdQ4UpW0YPBnVvv3226OSu9RSSxWOwOfjwvTxm266KTzyyCMBA1lLLrlk3ol+i4AIiIAIiIAIiIAIiMBUEpBi28drrUux7ePR8iICIiACIiACIiACIiACIiACIpAjUDxnNedIP0VABERABERABERABERABERABERgUglIsZ3UN6N4iYAIiIAIiIAIiIAIiIAIiIAIVCLQ+O1+KqVSjqaCANshpfu29pOopZdeOqy11lr9eJUfERABERABERABERABERCBCSUgxXZCX4yiNZMAW9QUbRU002X5FawLY0VYIgIiIAIiIAIiIAIiIAIiMD0EpNhOz7uc+pTsvvvu4Z577hkonc95znMG8i/PIiACIiACIiACIiACIiACk0dAiu3kvRPFqITAQQcdVHJHl0VABERABERABERABERABGYzARmPms1vX2kXAREQAREQAREQAREQAREQgSkgIMV2Cl6ikiACIiACIiACIiACIiACIiACs5mAFNvZ/PaVdhEQAREQAREQAREQAREQARGYAgJSbKfgJSoJIiACIiACIiACIiACIiACIjCbCUixnc1vX2kXAREQAREQAREQAREQAREQgSkgIMV2Cl6ikiACIiACIiACIiACIiACIiACs5mAFNvZ/PaVdhEQAREQAREQAREQAREQARGYAgJSbKfgJSoJIiACIiACIiACIiACIiACIjCbCUixnc1vX2kXAREQAREQAREQAREQAREQgSkgUEmxnXvuSs6mAIeSIAIiIAIiIAIiIAIiIAIiIAIi0DQClTTWhRdeuGnpUnxFQAREQAREQAREQAREQAREQARmCYG5Wibd0vrQQw+FG2+8MTz22GPdnOq+CIiACIiACIiACIiACIiACIiACIyUQCXFlhih3N51113hgQcekII70lekh4mACIiACIiACIiACIiACIiACHQiUFmx7RSI7omACIiACIiACIiACIiACIiACIjAuAhUWmM7rsjpuSIgAiIgAiIgAiIgAiIgAiIgAiLQjYAU226EdF8EREAEREAEREAEREAEREAERGCiCUixnejXo8iJgAiIgAiIgAiIgAiIgAiIgAh0IyDFthsh3RcBERABERABERABERABERABEZhoAlJsJ/r1KHIiIAIiIAIiIAIiIAIiIAIiIALdCEix7UZI90VABERABERABERABERABERABCaagBTbiX49ipwIiIAIiIAIiIAIiIAIiIAIiEA3AlJsuxHSfREQAREQAREQAREQAREQAREQgYkmIMV2ol+PIicCIiACIiACIiACIiACIiACItCNgBTbboR0XwREQAREQAREQAREQAREQAREYKIJSLGd6NejyImACIiACIiACIiACIiACIiACHQjIMW2GyHdFwEREAEREAEREAEREAEREAERmGgCUmwn+vUociIgAiIgAiIgAiIgAiIgAiIgAt0ISLHtRkj3RUAEREAEREAEREAEREAEREAEJpqAFNuJfj2KnAiIgAiIgAiIgAiIgAiIgAiIQDcCUmy7EdJ9ERABERABERABERABERABERCBiSYgxXaiX48iJwIiIAIiIAIiIAIiIAIiIAIi0I2AFNtuhHRfBERABERABERABERABERABERgognMSsX2P//5T/jHP/4RHn300Yl+OYpcMwk89NBD4S9/+UszI69Yi4AIiIAIiIAIiEAXArSl77jjjsBRMj0EHnzwwUA7tqkyV8ukqZHvN95bbrll+Na3vhW9P/DAA2GhhRbqKyjQzTXXXH35nUZPFG533313uOuuu8K//vWv8KQnPSksv/zyjWT08MMPh+uvvz745zHffPOFVVddtetr+/73vx822WST6O5zn/tc2Gmnnbr6kYPuBHgP9913X7jzzjsD3+yiiy4anv70p4fHP/7x3T3PUhd//OMfsw6WJz/5yWG55ZZrJAkaTrx3ZJFFFgkrrbTSyNPx73//O/z2t78NHCnzV1lllbDAAguMPB564GgJTFOdNgpylNO/+93vAg1jZMUVVwxPfOITR/HoiXzGtJTBRXBp66222mqxjtlxxx3DnDlzipzpWsMIfOxjHwvvfve7Y6x/+MMfhpe97GUNS0EI8zQuxrkI96NceqFLUDRUqsrf//73cPLJJ4ef/OQn4ec//3n8oJ///OdHRebAAw8MCy+8cNWgpsrdNddcE4477rjCgm3TTTcN3/nOd8LcczdrcsBmm20WLr744rb39Oc//zk89alPbbuW//HLX/4yuwQXyWAEGPnmm/voRz8aFdo0tKc85SkBxihtknYCv/71r8Oaa66ZXaRsuv/++7PfTTm59dZbwworrNAWXTrN5plntFXXnnvuGU499dQsHsccc0w44IADst86mS4C01injeINffKTnwx77LFH9qhtttkmnH322dnv2XQyLWVw2Tu78cYbs47Tq666qsyZrjeMQKofpedNSsbIWgd85Oeee2547LHHMj40WPod0aIXf/fdd4/hnXfeeVmYVU5oELsw8lNFiPtuu+2WfcjuBwWXvy984QvhggsuqDSq536n4ZgvvPNpgslNN90UVl555fytif6db0wTWRrU3SQdxRl147tb3Jp2H0XspS99aRwBKIo7Si/f/s4771x0e2qunXbaaeGEE06InUc+G6Bb4pgtkQqj3E0URmgpr9Op/WkdMqo0Lbvssm2P0jKWNhxT9WNa67RRvKRlllmm7TFNns7YlpA+fkxLGVyW9Pnnnz+7pbZOhqLxJ+lAwRJLLNHI9IxMsX3ve98bLrroohmQ3vCGN/Q8pYtR1je96U3hxz/+cVvv4IzASy64YsuxylRiFLOtt946C41eyNe+9rVxhPZLX/pS4I8pJ9tuu2244oorwrzzzpu5nfaTww8/PEsio9ZwQbljOjKjLYxwNk2pJUFMI/7Upz4V8+wWW2yRpbHbyUYbbRRe/epXBwr9173udd2c634HAnQWMa0Nec1rXhP23XffODp7zz33hNtuuy1OE99qq606hDAdt5jiRWP7m9/8ZjbNvVvKaGAyjfITn/hE2Guvvbo5n9j7TGOkLPn85z8fmO42Lnn/+98f3ve+98Wpd3/4wx/GFQ09dwQEprVOGwG6wDIvOoC33377WTtS65ynpQz29OSPLMfYbrvtAjMZ3/zmN+dv63dDCaTKbHrepOSMTLH95z//mXE58cQT4zlr5NIRrsxBl5Ojjz46KrU4e/vb397F9czbrtjme+FnuvzvlXQKH/PP3/Wud2VON9988/CEJzwhTsOl8ckI0mxRaBg5+frXvx5ZoOzzXlyqrEd1t5N65L0utthiPUXv2c9+dlRAevIkx4UEGO1H+F7PPPPM2FngDl/84hf76dQffYQyLUOrJJrp/wsuuGAVpxPvpp96ou5Esc5eIxN1U52s8Ka9ThsFbb6RSfheR5HWbs+YpjI4n1bKwy9+8Yv5y/rdcALpiG1+1kFTkjYyxdaBoEy+853v9J89HzEgc9hhh0V/jI6ttdZaPYfhL26ppZaq5JeeKUaM1l577Tal1j3vs88+2frSX/3qV10VW9YFM5rJyBNTBOkVwchC1cqAEevf//73cXre8573vGxtL9N+eD4KGYpl1fA8Hb0e02lGL3zhC3v1nrmnh5dRkNtvvz3Qy/mMZzwjpiFzUOGkjjAqPGZkTu69995orGbJJZeMawxH2aBGgXKDPcw+YFo2BRwjgDfccEM0nPO4xz1u6CzcYBDr2NNpT70+mGmst9xySxztfdrTnhbqiDtTUa+++urIhQ66JgnfLWsIYfrMZz6zpxkmlF3MTmEWC+t28d9E2wJeXjDaQH6n3CFvzEZjZIPWR53yPp3C5DXySZXe/7/97W+xbqOsYaaPd0J3ekad9+qq0+qKExyYtUI+pR3SZENMvFsMMjKLizqll3LYv9dB2gi8k0nhOdvLYMocjE9ht4Q2/dJLLx3LX9quf/3rX+OoP9dGIcwI4o9vjDYzbfHFF198FI+eyGekymzVpZoTlxDLYCMRWyuH9eWWKbYDPc+MyMRwCMumi/YV1mWXXRbDMAW5L/95T7aIPouTrfvN385+m7LQ2nXXXVvWEMzckw7/s/XGLfvAMvecXH755ZGZu4Hjc57znMwP188555yWGTZpu8YzbKp2W1h1/LBtklof+MAHWja9sfW2t70te+ZLXvKSeI3r/mfT91qmoJU+lrThz9OWHl/+8pe3rr322lK/fqOOML7xjW+0YG+dATEupkjFNPziF79oXXrppVn8bPqrP7btSHrz75Tf+O8kP/jBD9reLTytY6LF81MWhGUGODoFFe9ZRdEygzYts2IX48O3ZiPpLTPe1TKLrm1xtClEM8KzRkPrHe94R9uzPR7WwGzxx+8jjjhiht+6Lnz2s5/N8o8zJR2ep/xoVvs65g9TvGLaPQxPB0frhGnZsojCKFvDp0XeS90ThinG0b0tO2jZVPO2+8TPOqoKw+v3onV6xXf2m9/8JsuX1rnW4nf+709/+lPpYygjPS24Iwz/7UczhNSyhmNpGNzAL3nG/aRHU1paNlOlo/9Bb37lK1/Jnv3II4/EPE1etY69mK8pF62DsWXG2zo+yuwhzHh/aVqOPfbYlim6pWGQVtzzDVhDvfXBD34wMuXbsA6Oli2taX384x9vEcdUCJN8lz6Lc/zxPl2OOuqotu8UN+Qv8nPd0k995HHgeyC9aXp4F4g12ltwzJft1hFdmM/MQEnLpv/OSDdh8+1R51tHkj+69uMgdRpxJ93OgfdJ+l3Ij7w/v8+RfJoXm+WVpZ8046+IiS2JmtFGyIfV62/SkG9TEE/SZZ3oM4IrihdpTMsh6lPCsBltrZ/97GczwoeTLa2YEXb+Qr/1+zh55tMwLWUw6bLlQVk+TfO0LXnJJ7v0N3VoUX4jvPQ63+WwhPKEdmy+DPM0UXbRFpuNQnlAGQSDpgrr1EYidSi2NL7SSoKGfL9iU4769TrD30knnZRVXDTMy6SoUekfkh9RatLKBKXL7/V65KOloV6n2PTQnuJjU0hnPB72KCb59PAx5a/ZtPUZ/rlQRxg0TMsa6x4PKkg/L1Nsixqs+LEtpQrj7hcp4D3sKsdO4Z1//vmZ4lkUFg2J9Dq/U6EhnleoqWSK3kmRUpyG1e85FVkax27nKDZFYha6K4WDEkIhngplTFGaf/rTn7ZsXX9puHvvvXcazEDn5LNuac/ft2UQhc9MG1VF6fJwqOTLhMaMu+t0hE83BbnsGd2up4otnYed4kFaiuLhFXYnv9zbf//9S6Pjii1KWloX5cPk27ER/SwcGw0ojXPaKZB2FqZh2rYLWVh1nfRTH/mzafSl8fNz8m7aOPXrfqQTNpUrr7yytHHpfjjS6YgiPgwZpE6z0aUZHNJOiDTfenrgk5dOecn9+bFM4cyHWfU3XD3s/LFIubD1lIXu0/zuim0+vPzviy++uDCag9bv4+SZT9C0lMGki8GK/Dvkt9kfyCe78LctXWvzTzvEy9R8uHTGD0tsSWFbPPLP9t9pZ82w4jKJ4dapH40jfY1SbNOP4lWvetU4eM14pk2XzBrCNBwZaSmTt771rfFjoifEtjCJPUL07tJjb9viZB8alaELSi69ljTC/WOjQfKjH/0o9vz6NY4oYYxGM0rn17uNGvpzqh6p6N7znvfE+KRx8tEKrvkfo2tU/Hkh7R4/CjYzDNOyKWvRGQ1ARjzSRjgjm3kZNAw+XPKQx4PnoWzT80jhXVTYlim2pJHGEcolI6seZidFlPTQ+EZhSuOBXxq3vEcaCowMeXjEqUjSGQO4Jbwjjzwyjiblw+Y++cum57YF9aEPfSh7jq2Vzt4Hjohj2lhFgRmWUOF4/kmVcb/mRxpORaNzaRlBWg899NCWTX+LrKmk6ExIw7WtKWYkhdEovq/PfOYzGZPUD98vnVkf+chHMi50QNUldLik+d/ff9kRt7Y0ofDxaaMK/4xGf+9734uj3Z/+9Kez9HGP5+YFxulzyY82fSw6YxQSpSzt9e6kIOfD7uV3kYJAWhhtpvMr35BmJDUvlKXe4CUfnXHGGXEkFIUXJmk6mL1QJPlyoVO5wb30OyMfMqPCedLZy6yUtBFh0/JaKLHuhueVdVoUxa+Xa/3UR2n4xMv27W7rpEz5UB+R/0gz3w9/N998cxYEZb2/D9K7ww47xFkKdMbyrlCe09kTnKedvllAA54MWqddd911MR/6O6M8dmFkiPdJ3eD1Mkp6XshvZ511VvbeCQtedCqRR6hffEYR99I2Qj6sfn7TTvAyDsWZGS02BbowKNo4KKTpN5dvZ6T3iC9tAUZuead0HDkrOlOLZND6fdw80zTxDXh6OTa1DCZNtFd59+Rn/vz7raLY2rK7rF6jrE0VV8rgvNJcZcZeyrmXc9qcvAviQV1xySWXtCgHbJlNbN/6+yLfSppHoFGKbZrxaZSNWxjlYtqnfwQoZJ2EBkzZ1FxGnz2cgw46aEYwhx12WLxP5eOjTFSaaQPYpzGnPbBVpvvMeFgPF/z5ZhG5ki8aNp5O0uJTPPOeaWim7tLGXx1hpJUNDUw6KFJ5+OGHY2XsceBYptim/qj03U83xdb9MdrnflAq85IqpzR885I2/oqmLOeVAldM0nB85Jp3UjTaBQ+mlRFPOgBGIT4yUNb4ycchrxCinBYJ31qqxNBoLBJb9529F9JNXqchn5dhTJMkTDp7+PORdBr+fi09Fr0vj2Oaz2lYp98RblD8Pe/lly7gNlVUmNJeJHQYeKOYsMoaxEV+q17L52Ea/Hlh9C+NRzqC5G7Jx15++jU/0ph3FmV5IuVBuZH/llD2mWrq4eQ7gWgYehzJT0UdoXQWuP+i79njO+hxkPoofXZ+RB/FiDI6FRTSvFJKo9HTSd1eJORtRsfdHfl52NJrnUZ8UF49jqlim8bV6/AixRZ31EEeBnnE63MPA8XQ73eaVeDuez2a7ZMYPs9Oywnb6SF2OuRnX1EeER/qhbykii1Kal7oHPS05MvPOup3njdunp7maSmDPT3pkW+d91hFsUWR9Xde1n5HWXY3RYMi6bMHPS8qewmTvO/5s2rbY9C4yH+9BOa2TNQYwWCJy7i3kLHMH7cast6rGCW2A7KpkR69wiNbC7E4/bvf/W5gI3OrzIONfgYbBQnWaMwMZVjFWOifixhecKNQGDqxabDRrTW4Mv+4cbFGvJ9OxNF5EZkPf/jDYfnlly+M18YbbxwNdnET4z9W2WXu6gjD1m1l4VnDLGCkKRUs/h1//PHBRirTy0M/Z0uRvLCFgosp134ajxgf8220TOEMpry03efH61//+rhVyYwbyQVT9OIvWM+x7WWsc6Rtz2l4sN3M1772tWAjMInPyTn9yU9+Eo2xESNr+IX111+/MHIYR2BvWBe37O2/i47W2I37VWOwLi/DMDhEmDyTPwxqILwDv5YeqxoWs/WbM7Y3s06TLDnWyZSdc0J569stWUM1pG5Thxj5sM647JI1wLPzYZyQz4u2l7BGVtt7JR/nBYamfAabEhv3BiafsBUdFt0xiuWSljd+LX+0Ed9YHqfXMbZGuWYNonjZRuGikRR3g8EuynuEb/eUU07xW/Fo1XuwzoZ4bgpQ3D6tzUGNP+qoj/LRsQZhsA6laBwovYehoLyxIFPaoxMb9ckMQqZ+OCdvw9OFLf5mg/A9mYLZltR11lknM9SGscW6xesZ6gB2eHDhe6OOZDtD7iEYYTr33HPjufuLP3L/SIPNisldDXFbIL9oHWN+Go911O9tAdqPcfDMx4Hf01IGF6Wt2zW+cxd2OTB7B8E6Gv1SPL7yla+MxuOsY7GSsbk2zz3+wBAbdRX1hI3aBvI5bXK2eVxooYViaBg7kzSPwMitIg+CKM1kqfI2SJj9+KXxwZY/tp42eqcBYr1yAdPunYQ9Jc3wQlY5lLm1XuqyWzOue6N2vfXWy+7RYKHhS8PJesmz65NwYtOqs2jQwLP1kNnv/ElauXLuytegYVgPcVZx25TEUuUa5YLOim4dFvl49/ubTgp/n2kY6dY2+bxh0+Ayp+ley9nF/52wv3DaQMzfZ9sqm74cL++yyy7ZbfIR1sNRXlAUbWR3RoMrczzmE5u+ncWA9HaSDTbYIPtG2Hu6m6DQY5W0yYK18bzQWHbJ5y2bXui3YuVv05Kz3/mTVBG86qqrgo3m5J3U9rvTFm/kYxrTNMCJRyo0omjgsmVbN8mzyLu3kdhoxTN/nd98wzTmd95553jbptQF8psL12ngokjbEoC4S8AiiywSb3/7298OzpnGVl4Z9DDqOA6jPiL+3ijsFEfS7koS53RKVJFhd5pUicMo3LBtXF7IC694xStipwx1WN1C+e7tBhSLNddcM1qLTctVOuDp5LLZEFknIspImZTtWkEHiEv+Wxu0fvdw0+M4eKbP9/NpKYM9Pb0cyVtmeDHYTLZgy8vCuuuum3mnzEbxXWmllQJtss022yy7N4wTmxEYO7+9rC17Bm1oSfMINEqxZYsbl3EptozUotTatOMYFUZK+Ui7mcW26TjBpl559AMFOx82o0d8PPReEU6/UqQQ9RvWMP2lo+699Dqn2xwMGkb6XEy7dxJXpju5qeteWSO204igTb/NHu+N4+xCctLpHs5QqhlBYQZBOnJF3uSPkTt60m0NZWyUpyN0yWPGeprGewXbTqKbrLbaarHHNi1XyvykJvDL3Ez69aKOt07lRqqskra0o6lTWtNvtZO7fu91e7d0NKI02dTk7BGMMNEg91FCbpitgvCsZz0rNubZ7oGRxqpppAHWSdJyg/yVKraM6tKpZ2vp47eFgsnIMR2mNl01BstMka222qrTIwa6N6z6qFs96JFmu7tUqnLPj2KmYUzTedl3Sd4ZljAzhDzH6KxNhw/77bdfNhvIn8l1viMUA4R8yjZZZVKWjk512qD1e1FcyuIxTJ5F8ZiWMrgobVWuMcvF1vbHzpnUPeU1fyialNF853RMDmPLH9rZtnwrezxlNZ0zzNpjIMimTIcLL7ww67jJHOqkMQQao9jSMEl7TxZccMGRQybTm0XObKSWD8LW1syYxpqPGL2rrtTSK0WvdtEU1y222CLey/ufpt9pJcgoWLeGEBUS+w6nPa6DhpE+09ZZdMSbKksdHY7pJh0rLlQE9LIXSX70qsgN05j5o5Fpa12CrVGK0zZtPWfcf9B7Nw8++OA4RRKlYJIkXZ7Ae+vWCPYODt/XepLSUhSX/MhGkZs6ry233HJZcEw/TxsD2Y3khEYbvfJFZVvibOBTpi6m7zofoC/lSN0wCuRKLekwI2KFU92Y7VJF8opZ3k86vbJov3SmUqPEkk8Zvd1zzz1jx5F/Y3QgFTWC88/p5/ck1EfsG+zCFHemg3cS3gvTuNN6oJP7cd6jg6JIRv39FsWh2zVXbJnyzV7qjK4hzOY55JBDokLCzAfqB8QMhMVjnf8Grd/rjMu4w5rUMrhfLnSwf/WrX417xqI8MivIjDYFs1cTFVs6z2nno+SyLOuLX/xiv48q9Uf7xYU6gaVa+XKfZWj77ruvO9OxYQQao9gymkUj3td82cLyOEVyVLxRrJmiOWfOnPhIRgXMkMyMNVZF8TGrx9llpoMWNfyoDNNppZmHKTtJFS8awUVrFrsledAwaGj6lCsqaDMmE4o6SngnrJGbZElHrxj1YRQqP2LGBujd1sXSk8p0evI3+bMoj1LQU+AjVEiTptimcWZkodP0RqYfU3kiZgAuHif1n48qUOaNUhjRdmGEpZ9v1f3XeTRDUm1retOwGaX1zqh0mnU63Zw8vsQSS6Te4nk3ZTX1wPpCOsUWX3zx9HJ2/uUvfzk7X2ONNbJzP2F0jHW9b3nLW2JDDpsLrDtDyLed1i16GP0eJ6E+SpUXFKhJyVv9Mk1HIBn9LxrRZ0r6pEvaeYUtEO8MouOFPMq3RdmKAoKUrbuPN/v8N2j93udjJ9LbpJbB/cAyw3mBpSK0UczAXuxEz9sEwbaHd3qZpeJ+HtPRD51LvpyBQar8893zDTfc4KeVjnQAMfOG9iTLtZjVmU617hYIM0HNun9sgzGgsP3220fF2ll088992ge0z7AfQv3GciDabGnZVCWcQd1gw4IlE5SDLrQ/fWmOXxvmsfOi0GE+uY+w0498lI08FByzGBgb/USbhgcfXTodGqM+rMVkOlte0gXyRZUbI8FkQB9Byvufpt/p2hoqSwq7MuHDYD0coxf06rnUEYZXyFTUGA0oWotMQeOGmfzZk3akw8cNYaGoodxhDInCEX62DU1Ye+21s8Z+WfzpRWWKDgZC0pkRqft0aiSjuJMmrEWmwwJhNKxslJr0pYWs54VJS4/Hx2cYsFyhKJ/yDTH7gd7tstEiD6uXo0/TxQ/rPTt1vBEHnk8FVmVqdy/xyLulx73IiBB5nmluLqlymJYz11xzjTvJjkzpZ4plVSEP0TBKw3W/KAB8dwh1RarEuRuOfGs+ZZnRCR+tZZpyfgQh9Tfo+STUR4xG08BFaGja9hulyaLRx9RXlj8wyjOJkhrG8Wm6aTxJo+eJ9PqknVN+sg4S2W233eKR+naxxRYLbsOBKfQIbjt1HkZHffyro37v47ET6WVSy+B+YGEjhw4R2ltlBhuZeuydXLYdWD+P6egnrR9t66lCt9Rjp556auG9ootmGT92RPosBmYDoVSmzyryl16jswguzJajHUeb7thjj02ddD3HPX/4Zzq17VQyljLn0ksvjfUzg5D+x0DgSMXgj0TYGsESFve96veB1miKYRCOZYR+g+nZnzVUsufybKtg4x6W7GPpf1YZRDdFpu8xK44//2PfLPZ9s4ZMi7BtJDq7hxtb7xj3rjXFJJoet7Vu0dw+96wCjf6sQRXTYY3y6Jcj++m5WKUTr2OGvWxPRnfb65F9d9negD9Pk/V8Zdf8nq2VKQzaPuDMn2X4Ftvi+B6asOI322R42BytsdAW1qBhmAXYtvCtgo57BrJ/LFuLWCXedp84cJ2tlFyswRX3SMWP/7ElisebrXv8Okf2g2WbFhebBRD3H7UGXvRDPjDlpW07EramSbfTwEy+NeA9iHi0XsiWf1/+7E7H/BYlBOL5F3/W2I77GPq2KITPlg/kSw+XeA5DyKuefzxNxMev+ZFvB/55YUsKjyNHvk/rvIhuyVtsf8U35G7It6mwhRfbxvC+0n0l4Z6+S86Ltl5Kw6rr3BSdLL7WAdaiPOAbJE6+5YanJ93ihnSnZaY1rrPvjLiZchbLIfdra+papvS1RTvdF5gyha072N6HvEv+IE/zLXp5Q1jWqdAWxqA/+ObYH9fj6UfrSIz7RptS3+JbS+MAl1SoL9wf+cl61+P+oMSf+KZ+ccdWNOQx9jZE2MYH5ja9PQsHd3yzbPNGvjr99NPbviPu53mmceI8n1/ZXqIoX+f9DfJ7kPrIn0vehx3fAVu9Odv8N0K5YVOf3VvbMV8Gk4+sUyS6xw/1GfsU8748fFN62sKo68egdRplZJqH2FuZtLB3MXtze/w5kocoY6yDIYs+PK1hnLmzkZe4x7I7IHz29bTZJdEN+QS25Mu6Jd2ehvjaNOT4iPQb4vquu+4649HW8Ra3+7KR3yyesE3zAO0aszybpZX9pPNtlEHr90nhOS1lMC+acj//ffu3ST2av4f7VGgzpN8B79hmyWTlHe0SylJ3Q5tkGEJbz59hnZPZvu7Wud+2tZi7oZwra8sSv7R95n44smdzVbHOoixOaRhV/eMubdd4GLRjRy3ptqzEg7Jg1NKofWzTApePYlRSlGE84+SPZtGtMFo2TbQw47p/KkWUPP/NkQowX5n4fT4EJFVIuEflh6SVLOc02OsQ9rr0OFQ5usKaPpvGolfQVcLg40wbAYRVRxhlBVIaJy+4/RrvxBueqRLr97sd2ZvVxTcJz/tBGUFoJKTvMXWX3w+ZhkNR4x8/m266aVTK3X+RYuvKtbvxY74hz/U0DZ6WOo4oSv7cKkf4FwkdT1X8kwdp5KeSNqi6hTGqSoP3le/8KoobFbZ/5yi4RW7SSoZ8UeSGijwVOseK3BVdowwr28czDbPquc1imfHsojyZxoV05d8r30faMZO693Pinv/ebAQ4RrWs4eF+i450jHQTFJb03Zbl6W7h9Hq/3/rIn5Ovq4rS79dOOukk9zbjmN+f2P0UHXk3KH91Sx11GnGyUZYZebUoHX7NljZlSSnL056PU0XQ/XMs2/83C7iPEzpO02d4eUCdm16nMycvqWKSuqXjCaF8Sq+n595Zj7tB6/dJ4DktZTDvg3Zc+q6qnPMOUqGjsMgf33XR+8L9MKSsTZ3GjQ609DfnZfUaHc15t6SJjuOqQudOPgwGq3oRypN8GLb0sZcganGbr2cZjBi1NEqxtWHt7MWhbI5KGCXJZ5iy3zaFoTBaFOiH2chA3h8fAI0mm1ode47S+zTQKBxxk17nnFEcxKYeZPdwRw8hwoiD+6HBywhLHULPVVEh5M9KjzTYqKCKBOWQEY6ysLiOgkJvb5nUEQZ80x48jz8NNz5IRoP8GkebJpNFx6aNFL6b1H3+PG2I0MOZv887TBuC9Mzn3RDfMq42fSeOpNh0mNgp4j3hNEI8HHrM87L33nvH+3BPG9ruhyP3iFva+54PZ5DfKPL5QjF9fnoOp06jxlSKPuKb+uOcsoOKxDso0jjz/ebdl/2mXBiVUD7QiZUvC/jNyIltzxE7Qjw+NE6Lvi3vEMNdWkZ4GvHDKFNeyKtF34n7I1ybyt4Wh3wY/fwmP+c7FhnJY5Qwnz46oXh/Re+VZzPym58JQvwJx7bdifnaDDm1vX8frcqPupFeyo6i/EqHB6ORVQTF1jvPCKss7lXC6sVNv/WRP2PHHXds4+T5oOiI8tpJGLUxI0Sl4TELik6CsjKvU9hV7tVVp/EuaUjmGVCe8n3mlVPynAt5psifz/CxNd0z7vPtM2tjGOId5jyDdLn498P1ooY76cyng98MSiDk76L6hbIlfY677beNMAk8p6UM5l1QXvTSmcU7p/5NJe0w4X2Th4ryCu+OttUwhZky+fqDuNDxy7NpI6X3qYOKBgQ8jtQb7p78XaVT0/1yZODG1uZmPGDXy4gvYVBv0z51poyij2pWGc9HqK/9+RyHNcPmv08r/z8XtywCQxf2SGNdlGWQYI3tvp+HsQ3M0SOslUrX3fYd6Ag9sm6Aeec2xTQaw2K7mWFZvxxhsgZ6FOvbWJeHERHWWJBHet1eZdAweLYp0TEdGK/wdY0DJWyCPJ9yyinR8ipRIq2smUqFdXfWUI9rdBdYYIHAGlrriYxH8idGDHgvZdsmpGFN0rlVyHHtuika0bo2lnKb/G4prkmLfytWmY60/GBNKVaHKcMxUIHVTrZJKNuqath5wRobgT/eqzWUKj0O96SBvLH66qu32UqoFEDOEeFgbIT9WzHm1kt5Tl1GnYawdyhGN0Ypk1QfmWIT8zbvBmN+5C3KHQxtNUlIB4bIYMv66qZYXU8Z841YZ2jcBi415sT6PQynYZjNlJPUy1DPB63fhxq5EQc+aWVwL8nn28ZOBGuHrZMjfiemRMayGKOXfPN545e9hN+LW8pt2p18qzyXOA1S1pAu0tKLwad8fK3zLtjAQalRwrz7ot+0DaiPu23xWOR30GsYnEttltgMpLbfg4Zf1X/jFFsWoLvJf/ZZY4N7iQiIQDkBlCEaIjaKGR1h4buXxnd5yLojAiLQLwEUIBpTGA3EYA5GNyQiIAIiIAIi0EQCGKxyo1cYMsVA1zANIZYxapRVZBJBQwCLYwjmtSfROmuMnP6JwBgI0GNoU+vid0HvH1b2bPpYptRiil5K7RhejB4pAjkCbLHllvCxhCwRAREQAREQgaYSYAtUl0MPPXQsSi3PH/mILQ/1KWNo9Jj/7nV6I9O+UHARM1aQTbGMF/RPBGYpAVsTnJnKL0LAd8d+nv7tFLnRNREQgeEQYP9clgQwYwJhGhzbBiG2lj686EUvCieccEL8rX8iIAIiIAIi0CQCLFtgMMXWGccth8a1RGlkI7bpZsVU5vxRsfezxHeVVVbJNg73Te2b9PIVVxEYBoH555+/NFhmOTA6JKW2FJFuiMBQCZx99tnBDJ7F2RMsC3CllodynX2zWT8nEQEREAEREIGmEWDgxKxOx/X541JqYTayEVsexrRhFoy7YGyj19Fa98uRxgAGGjbZZJP0ss5FYNYSwACUWY0NZg0vYFiITqBnPOMZYb755pu1TJRwEZgEAhinw4BiWWfuGmusETCyKBEBERABERABEeiPwEgV2/6iKF8iIAIiIAIiIAIiIAIiIAIiIAIiUE5gZFORy6OgOyIgAiIgAiIgAiIgAiIgAiIgAiLQPwEptv2zk08REAEREAEREAEREAEREAEREIEJICDFdgJegqIgAiIgAiIgAiIgAiIgAiIgAiLQPwEptv2zk08REAEREAEREAEREAEREAEREIEJICDFdgJegqIgAiIgAiIgAiIgAiIgAiIgAiLQPwEptv2zk08REAEREAEREAEREAEREAEREIEJICDFdgJegqIgAiIgAiIgAiIgAiIgAiIgAiLQPwEptn2y+9e//hX+8Y9/hH//+999hjBd3u69997w97//feyJuvPOO8M///nPscdjkAj85z//iXnr0UcfHSQY+RUBEehC4OGHH47fWhdnui0CIjBmAmpzjfkF6PEi0BACUmztRaFIPPbYY5VfGQXsk570pLDwwguHjTbaqLK/aXV49NFHh8UXXzwstthi4brrrhtbMl/xileEpZZaKqy88srxnY4tIgM+eOutt455a95551Wje0CW7r3Vavlp38c6wuj74TV6rCMddYRRY5L6CurnP/95WGCBBeK39oEPfKCvMMbliTro17/+dfjlL3/Z9vfHP/5xXFGa2ufecsstbYzvu+++qU3rpCZsGtpcdFT30s6c1HeheInApBOYtYotI63/93//F1ZbbbUwzzzzRKXsxhtvrPS+5pprrvDAAw9Etw8++GAlP9Ps6NJLL82SV5Vh5qHGk4suuiiGRuNuEkaP+01amqc0I6A/inD7yle+ErbYYouw5JJLhrnnnjsst9xy4bWvfW246qqrKgdKg+r4448PdJoQxpprrhkOOOCAcPvtt1cOYxIc/uQnPwk777xzeMYznhHTscgii4SNN944fPWrX60Uvbp4VnrYiBwxWuvy0EMP+WkjjrvuumvMi2uvvXZI/1ZdddVGxL8pkbzkkkvCiiuu2Mb40EMPbUr0pyaeTW9zvf/97w90VD/ucY8Lr3zlK8OVV17Z97uZhk7FvhMvjyJQgcA8FdxMpZODDjoofPjDH87ShqL6l7/8Jay00krZtbITFGFGa/FDo7mJsscee8Qe/zPPPDM2+AdJw3zzzZd5p/FfVa644orwjne8I2y33XZh3333reqt0F2+sO8lHoUBjvHiU57ylOzpiy66aHbepBNGk84999y2HuoVVlgh7LTTTpWT8e1vfzswqpYKMyTWX3/99NKMc6bFo8BefPHFbffo8ODv61//evjkJz8Zdtttt7b7+R8oc29+85vD2Wefnd0iXfyhNNPoXWaZZbJ7k3ry7ne/O3zsYx9rix5l1w9+8IP4x/d3xhlnBBqPRVIXz6Kwx3ltiSWWyB6fnmcXJ/iETpoi8Q7XonuTfK3O+qjOdBblCzq7himnnXZaOOGEE8Jxxx0XNtlkk2E+aqhhM7L9ute9LsCQdsYgdfKgba6f/exn4YILLghpO+E5z3lOrCeqQjjrrLPC9ddfnzknPZtvvnns9MgulpzQtnQhHvxRF/Vaf9BmIk8wS26vvfbyIHs60il7+umnty2je/KTnxx22WWX8IQnPKGnsORYBCaSgH3os06s8mdeYvZnDb/WZZdd1hOHZz7zmdG/NdR78jcJjm0NapZ2G7EZOErnnHNOa9NNN21ZwdiyArxyeEcccUSMByzrEMIjHtY7WkdwYwtj7733jlxMwR1bHAZ98Mtf/vIsj6Xfmo1GVwraGo+F/l/ykpd09W9Ka+b36U9/estGWFvf+MY3Yr5I43L11Vd3DMs6W7JwSM+pp57aeuc735ldI98Sz0mWa665JouvdcbFb9QU9dYnPvGJFr+dB2krk7p4loU/ruu2Hj9Lv7YZ05oAAB7HSURBVDX0xhWNvp9rHS8tUx5a1vHQMiUoS0vfAY7JY9310TCScf/997de+tKXRsa77777MB6RhenPoaxpsvzwhz/M8uSf//zngZMySJvLFNAsLl7mceS9VhG+tdSfn7/whS+s4r1Fm/NLX/pS6/nPf34WzuGHH17Jb+rotttuy/xbZ0F6q/L5pz71qSwMTwdHU7YrhyGHIjDJBGbliO0f/vAH+47/Kx//+MfDnnvu6T8rH5dddtnwu9/9rpEjtuk6jzoMLTE6xl+v4vGoaxrgtEwR8xFb8lhTJc1XJ554YkyGKZlxTWOVNHnewO3znve8bKR3vfXW6+qdacP0ZpsyGl796ldnI5FbbrllXH/9lre8JYbxzW9+M9BrXyTW4IkjJtyzxks477zzst5sRiAOO+yw+P3T806v/aQKM1D222+/8LSnPS289a1vDfPPP38W1Q033DA861nPir+t0RV77LObyUkdPJPgJuYUOwku6blfm/Qj0xp9RsdCCy006dEtjV/6raflRqmHMdxghlY6M2mYUXAek8qiatqxXeLyyCOP+Gnfx0HaXMcee2ycAmyN8UBZxwguUnX0nW+Nsv6GG26I/g4++OA4Y69q24Xvc9tttw3bbLNNHKVlBLef6cjM1CAMZgyxHIG6h7zZi2DDgzxG2okDo7dIHe+ol3jIrQgMi8CsVGzTaSH9rkly5YMpHP0IhQoKNtNCmI7C2rd+poFQeaBgs6Z0lVVWCU984hP7iY78GAHWtrJG+G9/+1t8H1QiVadPUWHefffdwXqmA1Owll566ahM8E7/+te/xkqEa1XE8xSGsJouNEZs5GGgZKy11lo9hcGauJNOOqnwmTQuXLH9zW9+U+iGizQcXJgSmH6bLGP4yEc+Ehs2n/70pydasWVd14c+9CFPStuR8sJmOMQGW6dGVh082x48IT/S6Y3+zVWNWl3fO+EwJfGmm26KDVQbleq5oVo1zp3c1VEfMQ3ap2ouv/zyAaY+vR0lbRSK4aTw7MR6lPeoy37/+99HY4oYVfR2yyjjUNezPO69fqs8f/XVV49/nN98882ZYsvvqkIHH38IS1l++9vfVvWauaPMwU4D9kD+9Kc/Zdd7Odlnn31i/cT3ZjNvYsdlL/7hZ7MOoheWC7li20sYcisCk0yg+oLISU5Fj3GjsHdJRzD8WpUjo0jIGmusUcV55oY1Eow60VBmtIRRJZRrGqAUmmWF5etf//qAwRcaChwxgGNTb6Mii/8XvehF0TIxI6ep4p492E7uuOOOGL5NT8wuU8jzO/279tpro3KWOcqd0EhZd911Y1yIj/+hnHfrZcZgC72ePI8GHYJSnj7fz1EyaaiUCYoJyqc/34/bb799mZcZ1wmf9T/EnV7V5z73udGoDutB6aVlDfA999wzw196Af/4o+Kl0tpggw3iyCDvlN9cp/MiNQqV+s+fUwkj66yzTv5Wpd+sDb3wwgvDUUcdFS6//PKODCsFOEWO6Hhw4Z2ViU2vj7foDSevp0LjhLVjiE1xDlV77dMwJuGcvE+jF2FUuh+pyrOfsEfhx2cAVLGt4PGp43unLKacouOM0XRGz/neKdvpcGB9+Sik3/rI48bID507lJ/EnW+FP2xPwNQNNFLPYsAslbrqI8Ksgycdk8z6wbgPaSEN1Kcf/ehHw7C3XmMdOzsKUPdxjlCPe12YHklrJ6E8om1AGphdQtuAfE56uMZ6+6KRSrYvxB1uvC7l/G1ve1v2OM7T+7gjv3qbio52OuxpQ6SGJGnXpGngnGu9cO23zZVFfkJOsMSOlLXTukXzxS9+cZzFhLsjjzwyM2TazZ/ui8CsIWCNm1knrE2wFxz/fvrTn/adfqvUK/vFLWt5/bl+TNe5+TWbujkjXBv5muHX3eePVgG0WBOSCuvq8u46/SZeVvmlQWTnrOsq82tKYOau6IQ1j2V+i66fcsopRcHEa9brWRiWTS8t9ZPesMq4ZcaICsNI4wKLH/3oR6nX7NwMEbX5NyW25WuB0jA4t4o889ftpJe8lYbFe7eOjrY47bjjjqmTkZz7OjHybT9i06KyNFhjqp8gZvixTpWWTVHOwv3FL34xw41f8Hdo07b8UtuRNZn+fq0B13avCT/IX1/4wheyNFjjvedo98Kz58BH6KGXb62O7z3l7nmo6PimN72ptAzO40nXzeXvFf0etD4iTNYov+xlL8vyUFEa0mus63apsz6qgydr8IvqYo8/aym9Dq57jW26btKf1+1oBuwcZdvRZl60qtSx1BGmILf5pRwrei51mktZ2NbJHJ2YEbDCMIrC5ZpNq/WgKx17+VbLAkzbYbQB+hGvY6u2NdJnvOY1r4mMUq7p/SrnNgsn42ydR1W8FLpJyzNbmlPoRhdFoGkEZuWIrVUkVqb+VxhV61forawqTBmh5xdhBO/zn/98YB0ff4xYstbXKtZ434wHBTO8EM/9nyngAat8qRCOVeqxd5T1H4zcIuxtiOXXVHqdotxpGizruhjpOf/88+NfL2tbO4WbxtfPO8Wb7UqwmuvxsArDvVU6Mh0Hy7AII1YwZ52JfcRxNJn3gDDlh3Utd911V/zt/+jh9mmtrB+lBxo3jEgzOouJ/1QIt6r0krfSML/73e/OGPVnqpE1QlNns+r8xz/+cWCfUqZH8p0hO5l1ZqY4lwnT+5Gy/JpOh8vni7IwJ+E6oyhMrX7BC14QdthhhxglRkKw/lxV+uFZNexxuKv6rdXxvTPTxrmTVkbWGPWmbGC2C2u5KUsQyvtjjjkmntf9b9D6iPgyenfxxRdnUWP0iHqIMpV0sQwhlXQ2T6dyPfXj52XfYR08GUmm7qCcR5iez5pMRjb9XbEm02cYeZzqOi644IJZ3V8lTNoJRTPNaEuQDrchQtypkxhFZRbPr371qzhDjGdw3To82/Z7Z9SdtkM+z2H93cU6eNvi+rnPfS62BXyWEW2SXqTXfFD1W+0lDqN2621ORmzTLcd6icerXvWqzLnbsMgu6EQEZjsBq6BmnaSjdFYJDD39Nt03612jl+6WW24pfOb3vve9Nnf53snUiifhWIO6LRyrfDP/+++/f9s9ftgUpWgFMA2Hnn6rEGf8zfDc4YI1xrLndhuxtUo2e5YZtYn+SEtRHKwh1OGpM295eFV6UdMRA/JD2bOsgZalzZShtocyAmvlR/yz6Xht9/yHKd2ZG1tr65eHdiwbxTZFbWjPLAp4UkZsrbGa8fd31W0E2BSYzE+ZhW1menh4dVgWL2I4jGtYlfZ4c2QUqqqlauLTD89hpGMcYQ76vVOe+0wA2H/nO98pTIatvWtRJvp7qvLt9jJiW0d9ZApNFj9Gr4hzXm699dZslJO05GcFDFof1cGTOKTvBMu1ebHO07b3UfeILc+zKblZHeiWc00xza6l9WPZTKp0NkpZuYXftP3DeyySz372s23vlzYDdTdlp+fLsvxLGUF8bf1m5pYR5jQNnPdS7hTFsd9r4x6xTUe1rTO932S0fVv9stSIbd/45XGCCcyqEVvWc7B3rY/S0fOZ71W2Qrt2SXu1eT4jR0XCCKSPOtKbZw2QImfxGgZsrPHTdp81Wj7q6722qQN6ebnPGhkX7y3mevrn9+s+sqbMn+O9zqw39mvp0Xs2644D4aVr2KxRGNc4Fz3nwAMPjHHjnlXkbU7SvMO6O0aP8z2wrNdidJuRjKI9EdsCrOEHa/XSeBEkloExHDIbhXXTrPPz9VkwsEZbwEJy2Vq19B2mRqNSfun11H3qZhLPmV1hym2WpxmFYuTarYR2i3M/PLuF2ZT76XfVz/eOgSifCcCMgXTUJWWAkTnKd5eq78bddzvWUR+ls4dgUWQYj7XD1lmb5TXqmlQGrY/q4En8/J0wQwfjcnmhXmWEe5jy+Mc/PqsDvWzB2FZaH/o5a/yLxDpr42XyKVbbiwS/tEFcmH1RJFhQZzYYwugue4czwkvZiXzta18rzb+UEcSVowttDo+/H32tqbuZLcfUtgMW61lv3I8w68aFb0EiAiLwXwLFJeQU0qFxi6XUdDqR7W8ZqFCGLRjwcWGKFlMBy8R6NrNbnPu0tOzi/06e/exn5y9FY0cYoMLwTS9GGWYENAsupBW6GwIqS7ZPUaOzAQvHPg2VChql8Vvf+lbsLEmNDNHpQAMDAypveMMbwmabbVYWfK3XMXhFQwTFHUWbaXUou7NZ3ve+9wX+mIbLN8/3wTvjG2Hqdl4WX3zx7JIbcsku/O8Ey9cuT33qU/104o9u2ZN0USYy5ZKGPdcpG9NOr7LE9MqzLJymXR/0e7c13VmS58yZE6d9ZhdyJ2mnZn66bc5pzz/rqI/cEBQdRmVbZhExDAuxxIO0Uw7WKXXwTJUKtk8pE4xI8f69LihzN67rfLtujIjztCOvU5w6dZqwPIHOZd4bZYR3ALBdDlvGSPojQF5iaQzviToaA6QMaDAFvKhdV/aUtDMJxbZXQ6Zl4eq6CDSdwKxQbFlfYlNz294VPZJpr3jbzZp/pL1pRSOpZY/rtP6krNd2mKOcZfFs2nW33OjxTjsT/FrZMb9lxRlnnBH3B3Uruu6PRgZ/rFmiJx1FlwZqWhm527qPNMDM8Ez8qzvsJodHJ4NNG46NbRppjKKz3RaWtVNhVgGdEjQ83Npnep/z1FI21kabJpQtNKRYN8q6YxrszEgg31SVqjyrhtcEd4N876mySlqrljud6oF+mA1aH9Ep4gqe74PcKR5rr7124K9uqYNnqtiWdSJ7vEkrisgkik37botW1byVn/XVFoj9wLYEMwuwY4FQt8z2jtIIYoB/7JnNdj+pEot1fX7n1zd3eky67tw7HTq51z0RmC0EZoViixL4nve8J25L4BXyaaedFmwtS7af1zBfOFOyXJjCg/GlTkJ8GRVMC75O7ge5V2T2f5Dw+vE76tFlRjVdcaFiZypdN6HDgC2AqNhTYYQLZQkDYGyxwygCygJGqFBsmfZHnuOcka4vfvGLqXedj4EA26z4VD0ax3nFlih5/qAzokgYFXdp0oitx9mPzFZwg1qMaPcjVXj2E+4k+hnke0/zGTMH2Oqtk/iyjU4jop38l90btD5abLHFstHLXjpqy+KTXu+lPqqDZzo7gzK6bJkQccwrj2m8h3HeCwu2k3NBEX3ve9/rPwuPGGFiKni3NgYGEF2pJSDqMrazYxS+l07aXtJSGOEpugjD/CwxDH/6MrSqSfWlXLin/SERARH4L4FZodiSVKb/mon0OErDOhoKFxq3u+yyS5zCO8wMwV6mLihGZrzBf47lmE6/TkeeRh0ZjwcNilELIwg+fcv3j+w1DuwXuPnmm8cKiU3T6d3mLxXWcXqjI7Uumbqp+5xptqwJo0Gy3XbbhXe9610z9mKt+5lNCi+d1VA284G9H5mmx8iHGcbJ3qGnkx52hFGeKmun2XOZqX2pZdivfOUrHadx+rOGefT1fDyjjEW351fhmYYBA6Y+p9akUfR23nnn1NnEnQ/6va+22mpZmij7xlUPDFofoRRhRZ5RJ74RRoCxqFsmzJi6+uqr457eRXnM6wH891If1cEznb7J8g0z7FOYjMsuuyyb6lvooMaL/j2x7KWqpJ0VjKjXkbeYLoulawTLu5R1W2yxRZySbMYBY6dt2rmQj2tatpQt6cj7mQ2/qTu8YxSmWN9mSVOvku50QKe7RARE4L8EZpXxKCpVFJF3vOMdMfUoVCg3wxaMtbjsueeegQZSmdDYo6CjUmHkbxiSNi7KRqTYgoJ1YJj3H5bQ8+/CFjl5YcowI54Yd6q7RxJDXS4ofp2E6Wof/OAHZxgQuf7662P8zMrijO2VPDx6tb2RUXca/BnpkfeGYSTvZWc9FNs+mAG71NnUntOIZuQcg11FYtY4w6mnnprdSg15ZBftBOM+LnwHqTC9nD+EsqTKFhSM6qMk+1o13lO3qY/pM/s9v+KKKwLrIcve/wknnJAF/eIXvzg795O6eHp4HC+99NLAGndnwdG3KkvdTdr5oN87U1l9xgflyXXXXVeaROoIZneg8Jfl5VLPXW7UUR+layxZm1pWp2GciXW2dB664aF89Pqtj+rgSQeWC3Vz0RRevlWWLo1KfEYX0575/vICa2Z+kT/8u2Z030f86GxgO8EyMWvS0agXS7EoK4uEtfc+qwW7IO985ztj28nrFUbqKS9sh4ci7/Faul6/iCuOqFvphO13tkjpwyf4RrrGnS0g+1FqSR7LaFxGUZf4s3QUgYknMMEWm4cWtc985jO08uOf7e02tOekAacm5tkewUbVWr45OFvk8NvWt2XxIn5s/+NixmpaVqlk948//viW9ZT77ZZN9Wlde+21rZe97GXRDVsGWKO2dBsb346F51gl2LJCssUWJh/5yEdaNpUpe441xLJncGLThlvWqG9ZD3b2d/TRR2fu2fonvWeVc4xbWyD/+4Gpe38PNi2vxSbvpImteKwibTNnf/LJJ7cFwXYBxDd9lhm5iOHZNNK267iBTSqkwwxsZM+3yiXywmw+2xqwfYVNV2+lnIhralaftHn8OfKO2eLCt2myBlHLpnlmbnjGsMUsWWbPS+M2qnzu6XNuvIt+xKZyZ+notj1PGr6Ngmb+rBOrdcopp7Ss8dTi+yG/pe/crHymXmec+7YbcGTzevKFKRkta0Rkz7AR+Rn+ii7YCFfmh/D4ZoYt5GHPA2yBxTP5Fvh2rKHZstH87D5pMuvOM6JUJ08PnK1IPF4c+fabIHV87+n2GpStlGu8J/IWZQtlGuUI95yRKRgz8JiS3VbGpfVLWiZyjtu8pO77qY+Ir3XYZXEk/7DtFd8HZaCtX29R3nkaOFI3lImXF7jrpT6qg6dZQ26Lp1nCj/GnvKCeTd8F8aNcufLKK1umdJYlZ6Dr6RZz++67b8uWS8S6kS3l2AIoZWoj4dmzTMlsu8c75n1Q1/FnHSktW8PZVn6x/ZcL9ZYpmC3rdMnCodwwRdqdxDTbzLfsPuU7eZb8kBebFdfmDp60M8gblAFpWWwznfLeh/Y7zfveBuv1YXwzvAf49CppuUu91K/w7jwv8N76kfT7oY6TiMA0EKDHb9aJranMCgQK5VEIe2O60umFUaej9Yi3NTRtLWgW59QfSjGS7mOY3i/bz44GT+qu7BwFMxXbLqSSvzQ8OhKKBGXcldHUff6chgWVcipppZh3X/Y738BD2aViLnOfv55XRlDw8274TXyL3hfuhy00gvJxIj40MkYp3lAdtWJ72223zUh/nge/2bvSRtA7IkH5yzdq07DY67GK8JzUH+f+3Vbx368bvq9UCc/HIf1d1vFRJ09PR17Jp8HbBKnre7e19jPyQ/ou0nMa0PlGa9le1am//LmNirchHrQ+IjCUlKrlMB1MnaTf+ogwB+XJ95l2YuXZ8RsFJn+96vffKd1F9+gQTffWzT/Xf8OeDsBU0o4od1d2pGyjs9wl7YRN/dBuccl3Srk7mwXjTtqOthPFDG7uJz3a9lFt/ob5Y9yKrY2sRya0EfoVFOKUHx0X/YgU236oyc+kE5iVii2FqBcKo1JsyQj0iJ5++umFSg/xoaCz6UGxdzafcVB0Pc5+pPJj9AVJN0P3+1Rc9PKWCSMQRRU6jeFDDjmkVdTYZUN3D7/qkdHoMqHxbYa9CpmQZkYgi5QyWxvdUzxga9POZ0SDBh499GVpofFA5Vw0Msem9e4Pd2VKEOlASRqVHHXUURlP8sgoGw2exnEptjwfBQTmZe+DhnDVnnLCKuqksOlzntSuR0YoPJ9wLOts6hpQHw4Ykdhrr71KFVxG1RjV6SR18swr+emIUac4TMK9Or93FLlOSiGzFGy/9cJRQTr5yvJ2ms/8nPzLqHBeBqmPPCzKb7NfURofOkZtPaE773jspz7yAAfhSRgoBocffnjbdwo/ONtygzia7qN0zpXvelhi62vjiHf+PfPbpn7HUc+yEWNGzM040Yy0eLwZcaZOoO5LxayiF/pJZ8wU1f/kL5sanQbVdo6fIkWdb9+WXRXWy20B1PxjGhTbtA3LKH6/IsW2X3LyN8kE5iJyVuDNKmFdCft7IqzhxMrfqIVtRKxBGTCqwDpMG9kKmIEfh1jjJK53s4ZOjEfd20tUTRNrnm2EKG6NA5N07VXVMPp1x2dgjb/4TmxaVeTAO0k3mS8Km7VBrINivRf8sJzJOmmsIsMR4xrj4EmciIcbriqK+zCvrb/++nEdJQzTtUBVn2kNzbiHIu6tYRVs1L+q18wd79RGsINNGww2zTbuKcx7Si2hZo47nBCOje5HAzgYabHOoJDf9qmD97itWLqNA+/FGoOdvAzlHsZoYIFdgRVXXDGsvPLKITU60+2hdfBk32CstrqwxVD6269P6rHu7531koTJN4IRMsoLto/CcvsopY76iLWorEOm/CQdWBju5Tvx9A5SHw3Kk3ITY1isIbUO3viNsH51XMI3xzpWbydQblSNDxzxS/5acMEF4zuhPkiNOo0yXaZIx/qVOpV4LLDAAqN8fPYsdshgbStCvu+1PsAfhsswAGUj+bFe4FpVeeUrXxmNmFrHViyPq/pL3bG3MMYHEet4DGuttVZ6u/K5DYhkexLbVOS+1/tWfqAcisAICMwaq8gpS7bScaESG4diixI7LkXW0+5HrFKmFib9+qiPVNrjaPCTTgwAoYTx14uwl6cLDQ4UBv7GLXQKjEupHXfa/fm8Uxqn/A0ihLP66qvHv37CwYCOC42qceVxyj0aVf1KHTxTY3Q0CgeJT7/pGMRf3d87jXs48DdOqaM+Yl/NdG/NftMzSH00KE/KTYxd8TcJwjfXb50CRzqv+JsEQaHtVwGbhPjXEQfvJCWsfvc/Z0cPV2oxTDnbmdbxXhTGdBEYX1fkGDmmigejQVioTDdqH2PU9GgREIEpImBTnoNNscxShGI7m+X73/9+lnxbr1/JonTmQSciIAIi0EACzCQ455xz4iCK78TRb2dWavG6237FDUSlKIvAwARmpWLLNjO77757Bo8GFvvZMXorEQERqI8AlTjbPvC33nrrFW5f0e1pbBPiYey3337dnE/UfRo0LpQ5s30UnSn6iK25C1tttZWj0VEEREAEhkaANp7XIT4NuZeHMdK64YYbZmH4PrRVw2D7uNe//vVxeY77efvb3+6nlY9MlWcrJsSsK/e1jIN97hkthofZoqj8bDkUgaYQmJVTkXk5ZvAirv9hn0/WdiJpIzRe0D8REIG+CKy77rpZJc7UKYQ15TQQqgjT6OjR9v0PPQzWQTdJWCvOOi5GKjfZZJMmRX0ocWVfXaZmM6V31OtIh5IgBTprCVAWsb5xUEFh6mbLYdBnzHb/2BfwOsRZsETFjHH5z65H7H/kw8DeQhVhzbkLfmwbqVgG+rWqRzPoGW0k0DHI/r/9CGudvc2b+h90yU4als5FYJwEZqXxqBQ4DW0MM2BcYd55501v6VwERGAAAmaxOxrU8iBovPViEAxjXISRyqKLLqrpqykQnYuACIyFwJw5c8LOO+888LMHMf4z8MNnUQAsC0kFpbaXzjVGS1EKXVj/TH1UVWhn4r6q8a+icEkDBp/e+MY3hvnnn7/ISaVrpIP0uLA2fVxGxTwOOopAXQRmvWJbF0iFIwIiIAIiIAIiMDsIsHb+jDPOGDix+++/f9wZYeCAFIAIiIAIiECQYqtMIAIiIAIiIAIiIAIiIAIiIAIi0GgCs9J4VKPfmCIvAiIgAiIgAiIgAiIgAiIgAiLQRkCKbRsO/RABERABERABERABERABERABEWgaASm2TXtjiq8IiIAIiIAIiIAIiIAIiIAIiEAbASm2bTj0QwREQAREQAREQAREQAREQAREoGkEpNg27Y0pviIgAiIgAiIgAiIgAiIgAiIgAm0EpNi24dAPERABERABERABERABERABERCBphGQYtu0N6b4ioAIiIAIiIAIiIAIiIAIiIAItBGQYtuGQz9EQAREQAREQAREQAREQAREQASaRkCKbdPemOIrAiIgAiIgAiIgAiIgAiIgAiLQRkCKbRsO/RABERABERABERABERABERABEWgaASm2TXtjiq8IiIAIiIAIiIAIiIAIiIAIiEAbASm2bTj0QwREQAREQAREQAREQAREQAREoGkEpNg27Y0pviIgAiIgAiIgAiIgAiIgAiIgAm0EpNi24dAPERABERABERABERABERABERCBphGQYtu0N6b4ioAIiIAIiIAIiIAIiIAIiIAItBGQYtuGQz9EQAREQAREQAREQAREQAREQASaRkCKbdPemOIrAiIgAiIgAiIgAiIgAiIgAiLQRkCKbRsO/RABERABERABERABERABERABEWgaASm2TXtjiq8IiIAIiIAIiIAIiIAIiIAIiEAbASm2bTj0QwREQAREQAREQAREQAREQAREoGkEpNg27Y0pviIgAiIgAiIgAiIgAiIgAiIgAm0EpNi24dAPERABERABERABERABERABERCBphGQYtu0N6b4ioAIiIAIiIAIiIAIiIAIiIAItBH4f9u2oYYWioX4AAAAAElFTkSuQmCC;" vertex="1" parent="1">
          <mxGeometry x="290" y="410" width="258.15" height="50" as="geometry" />
        </mxCell>
        <mxCell id="dnroV-yNeMtvSaGfvZ87-32" style="edgeStyle=orthogonalEdgeStyle;curved=1;rounded=0;orthogonalLoop=1;jettySize=auto;html=1;entryX=0;entryY=0.69;entryDx=0;entryDy=0;entryPerimeter=0;strokeColor=#666600;endArrow=classic;endFill=0;endSize=6;sketch=1;curveFitting=1;jiggle=2;" edge="1" parent="1" source="dnroV-yNeMtvSaGfvZ87-31" target="dnroV-yNeMtvSaGfvZ87-17">
          <mxGeometry relative="1" as="geometry" />
        </mxCell>
        <mxCell id="dnroV-yNeMtvSaGfvZ87-31" value="&lt;pre&gt;&lt;i&gt;Training &lt;br&gt;&lt;/i&gt;&lt;i&gt;Corpus&lt;/i&gt;&lt;/pre&gt;" style="shape=internalStorage;whiteSpace=wrap;html=1;backgroundOutline=1;" vertex="1" parent="1">
          <mxGeometry x="300" y="480" width="90" height="80" as="geometry" />
        </mxCell>
        <mxCell id="dnroV-yNeMtvSaGfvZ87-33" value="Results Obtained" style="shape=table;startSize=30;container=1;collapsible=0;childLayout=tableLayout;fixedRows=1;rowLines=0;fontStyle=0;strokeColor=#fafbf9;fontSize=16;fontFamily=Comic Sans MS;fillColor=#d5e8d4;" vertex="1" parent="1">
          <mxGeometry x="217.5" y="640" width="222.5" height="140" as="geometry" />
        </mxCell>
        <mxCell id="dnroV-yNeMtvSaGfvZ87-34" value="" style="shape=tableRow;horizontal=0;startSize=0;swimlaneHead=0;swimlaneBody=0;top=0;left=0;bottom=0;right=0;collapsible=0;dropTarget=0;fillColor=none;points=[[0,0.5],[1,0.5]];portConstraint=eastwest;strokeColor=inherit;fontSize=16;" vertex="1" parent="dnroV-yNeMtvSaGfvZ87-33">
          <mxGeometry y="30" width="222.5" height="30" as="geometry" />
        </mxCell>
        <mxCell id="dnroV-yNeMtvSaGfvZ87-35" value="1" style="shape=partialRectangle;html=1;whiteSpace=wrap;connectable=0;fillColor=#eee1b9;top=0;left=0;bottom=0;right=0;overflow=hidden;pointerEvents=1;strokeColor=#d6b656;fontSize=16;fontFamily=Lucida Console;" vertex="1" parent="dnroV-yNeMtvSaGfvZ87-34">
          <mxGeometry width="49" height="30" as="geometry">
            <mxRectangle width="49" height="30" as="alternateBounds" />
          </mxGeometry>
        </mxCell>
        <mxCell id="dnroV-yNeMtvSaGfvZ87-36" value="Train Predictions" style="shape=partialRectangle;html=1;whiteSpace=wrap;connectable=0;fillColor=#eee1b9;top=0;left=0;bottom=0;right=0;align=left;spacingLeft=6;overflow=hidden;strokeColor=#fcfbf7;fontSize=16;fontFamily=Lucida Console;" vertex="1" parent="dnroV-yNeMtvSaGfvZ87-34">
          <mxGeometry x="49" width="174" height="30" as="geometry">
            <mxRectangle width="174" height="30" as="alternateBounds" />
          </mxGeometry>
        </mxCell>
        <mxCell id="dnroV-yNeMtvSaGfvZ87-37" value="" style="shape=tableRow;horizontal=0;startSize=0;swimlaneHead=0;swimlaneBody=0;top=0;left=0;bottom=0;right=0;collapsible=0;dropTarget=0;fillColor=none;points=[[0,0.5],[1,0.5]];portConstraint=eastwest;strokeColor=inherit;fontSize=16;" vertex="1" parent="dnroV-yNeMtvSaGfvZ87-33">
          <mxGeometry y="60" width="222.5" height="30" as="geometry" />
        </mxCell>
        <mxCell id="dnroV-yNeMtvSaGfvZ87-38" value="2" style="shape=partialRectangle;html=1;whiteSpace=wrap;connectable=0;fillColor=#eee1b9;top=0;left=0;bottom=0;right=0;overflow=hidden;strokeColor=#d6b656;fontSize=16;fontFamily=Lucida Console;" vertex="1" parent="dnroV-yNeMtvSaGfvZ87-37">
          <mxGeometry width="49" height="30" as="geometry">
            <mxRectangle width="49" height="30" as="alternateBounds" />
          </mxGeometry>
        </mxCell>
        <mxCell id="dnroV-yNeMtvSaGfvZ87-39" value="Test Predictions" style="shape=partialRectangle;html=1;whiteSpace=wrap;connectable=0;fillColor=#eee1b9;top=0;left=0;bottom=0;right=0;align=left;spacingLeft=6;overflow=hidden;strokeColor=#fcfbf7;fontSize=16;fontFamily=Lucida Console;" vertex="1" parent="dnroV-yNeMtvSaGfvZ87-37">
          <mxGeometry x="49" width="174" height="30" as="geometry">
            <mxRectangle width="174" height="30" as="alternateBounds" />
          </mxGeometry>
        </mxCell>
        <mxCell id="dnroV-yNeMtvSaGfvZ87-40" value="" style="shape=tableRow;horizontal=0;startSize=0;swimlaneHead=0;swimlaneBody=0;top=0;left=0;bottom=0;right=0;collapsible=0;dropTarget=0;fillColor=none;points=[[0,0.5],[1,0.5]];portConstraint=eastwest;strokeColor=inherit;fontSize=16;" vertex="1" parent="dnroV-yNeMtvSaGfvZ87-33">
          <mxGeometry y="90" width="222.5" height="50" as="geometry" />
        </mxCell>
        <mxCell id="dnroV-yNeMtvSaGfvZ87-41" value="3" style="shape=partialRectangle;html=1;whiteSpace=wrap;connectable=0;fillColor=#eee1b9;top=0;left=0;bottom=0;right=0;overflow=hidden;strokeColor=#d6b656;fontSize=16;fontFamily=Lucida Console;" vertex="1" parent="dnroV-yNeMtvSaGfvZ87-40">
          <mxGeometry width="49" height="50" as="geometry">
            <mxRectangle width="49" height="50" as="alternateBounds" />
          </mxGeometry>
        </mxCell>
        <mxCell id="dnroV-yNeMtvSaGfvZ87-42" value="Jaccard Score per sentiment" style="shape=partialRectangle;html=1;whiteSpace=wrap;connectable=0;fillColor=#eee1b9;top=0;left=0;bottom=0;right=0;align=left;spacingLeft=6;overflow=hidden;strokeColor=#fcfbf7;fontSize=16;fontFamily=Lucida Console;" vertex="1" parent="dnroV-yNeMtvSaGfvZ87-40">
          <mxGeometry x="49" width="174" height="50" as="geometry">
            <mxRectangle width="174" height="50" as="alternateBounds" />
          </mxGeometry>
        </mxCell>
        <mxCell id="dnroV-yNeMtvSaGfvZ87-44" value="&lt;h1&gt;&lt;font face=&quot;Comic Sans MS&quot;&gt;Twitter Sentiment Extraction&lt;/font&gt;&lt;/h1&gt;&lt;div&gt;&lt;font face=&quot;Lucida Console&quot;&gt;With objective to extract the influencing phrases/keywords for multiple sentiments using Spacy NER!&lt;/font&gt;&lt;/div&gt;" style="text;html=1;strokeColor=none;fillColor=none;spacing=5;spacingTop=-20;whiteSpace=wrap;overflow=hidden;rounded=0;" vertex="1" parent="1">
          <mxGeometry x="400" y="20" width="360" height="90" as="geometry" />
        </mxCell>
      </root>
    </mxGraphModel>
  </diagram>
</mxfile>
